<?xml version="1.0" encoding="UTF-8" standalone="no"?>
<svg
   width="200"
   height="200"
   version="1.1"
   id="svg3"
   sodipodi:docname="idea.svg"
   inkscape:version="1.3.2 (091e20e, 2023-11-25)"
   xmlns:inkscape="http://www.inkscape.org/namespaces/inkscape"
   xmlns:sodipodi="http://sodipodi.sourceforge.net/DTD/sodipodi-0.dtd"
   xmlns="http://www.w3.org/2000/svg"
   xmlns:svg="http://www.w3.org/2000/svg">
  <sodipodi:namedview
     id="namedview3"
     pagecolor="#ffffff"
     bordercolor="#000000"
     borderopacity="0.25"
     inkscape:showpageshadow="2"
     inkscape:pageopacity="0.0"
     inkscape:pagecheckerboard="0"
     inkscape:deskcolor="#d1d1d1"
     showguides="true"
     inkscape:lockguides="false"
     inkscape:zoom="3.33"
     inkscape:cx="99.84985"
     inkscape:cy="99.84985"
     inkscape:window-width="1680"
     inkscape:window-height="1022"
     inkscape:window-x="0"
     inkscape:window-y="28"
     inkscape:window-maximized="0"
     inkscape:current-layer="Layer_1-2">
    <sodipodi:guide
       position="152.55255,36.336336"
       orientation="0,-1"
       id="guide1"
       inkscape:locked="false" />
  </sodipodi:namedview>
  <g
     id="Layer_1"
     style="display:none"
     inkscape:label="BigLogo">
    <title
       id="title1">Layer 1</title>
    <g
       id="svg_3"
       stroke="null"
       stroke-width="0">
      <g
         id="svg_4"
         stroke="null">
        <title
           stroke="null"
           id="title2">Layer 1</title>
        <path
           style="fill:#f9ff00"
           d="m 7.6,2.7 c -0.4,-0.2 -1,0.1 -1,0.5 v 11.2 12.3 c 0,0.5 0.5,0.8 1,0.5 l 4.3,-2.5 c 0.2,-0.1 0.3,-0.3 0.3,-0.5 v -4.9 c 0,-0.5 0.5,-0.8 1,-0.5 l 4.3,2.5 c 0.2,0.1 0.4,0.1 0.6,0 L 23,18.4 c 0.2,-0.1 0.3,-0.3 0.3,-0.5 v -5.6 c 0,-0.2 -0.1,-0.4 -0.3,-0.5 z m 9.3,17.2 -8.7,-5 C 7.8,14.7 7.8,14 8.2,13.8 l 3.7,-2.1 c 0.2,-0.1 0.3,-0.3 0.3,-0.6 V 7.3 c 0,-0.5 0.5,-0.8 1,-0.5 l 4.3,2.5 c 0.2,0.1 0.3,0.3 0.3,0.5 v 9.5 c 0.1,0.6 -0.4,0.9 -0.9,0.6"
           clip-path="url(#SVGID_00000140709407990444335930000011421842708717333427_)"
           id="path1"
           inkscape:label="new"
           transform="matrix(2.1562087,0,0,2.1562087,95.553402,104.3155)" />
      </g>
    </g>
  </g>
  <defs
     id="defs3">
    <linearGradient
       y2="-0.0092"
       x2="1.02286"
       y1="1.00921"
       x1="0"
       id="svg_2">
      <stop
         stop-color="#FCFC03"
         id="stop2" />
      <stop
         stop-color="#FCFC03"
         offset="1"
         id="stop3" />
    </linearGradient>
    <clipPath
       id="SVGID_00000140709407990444335930000011421842708717333427_">
      <rect
         id="use1"
         x="6.6999998"
         y="2.5999999"
         width="16.700001"
         height="24.700001" />
    </clipPath>
    <clipPath
       id="clippath">
      <rect
         class="cls-2"
         width="68.550003"
         height="101.4"
         id="rect1"
         x="0"
         y="0" />
    </clipPath>
  </defs>
  <g
     id="Layer_1-2"
     data-name="Layer 1"
     transform="matrix(0,-0.24656789,0.24656789,0,172.43129,163.48057)"
     style="fill:#192136;fill-opacity:1"
     inkscape:label="SideLogo">
    <g
       id="g8"
       style="fill:#192136;fill-opacity:1">
      <g
         class="cls-1"
         clip-path="url(#clippath)"
         id="g2"
         style="fill:#192136;fill-opacity:1">
        <path
           class="cls-3"
           d="M 3.9,0.35 C 2.16,-0.65 0,0.6 0,2.6 v 45.8 c 0,0 0,50.39 0,50.39 0,2 2.17,3.25 3.9,2.25 L 21.65,90.8 c 0.8,-0.46 1.3,-1.32 1.3,-2.25 V 68.28 c 0,-2 2.17,-3.25 3.9,-2.25 l 17.74,10.25 c 0.81,0.47 1.81,0.46 2.62,0 L 67.27,64.5 c 0.79,-0.47 1.28,-1.32 1.28,-2.24 V 39.09 c 0,-0.93 -0.5,-1.79 -1.3,-2.25 z M 42.01,71.17 6.21,50.66 C 4.45,49.65 4.47,47.12 6.24,46.13 l 15.3,-8.52 c 0.82,-0.46 1.33,-1.32 1.33,-2.26 l 0.07,-15.63 c 0,-2 2.17,-3.24 3.9,-2.24 l 17.77,10.27 c 0.8,0.46 1.3,1.32 1.3,2.25 v 38.91 c 0,2 -2.16,3.25 -3.89,2.26"
           id="path1-2"
           style="fill:#f9ff00;fill-opacity:1;stroke-width:0px" />
      </g>
      <g
         id="logo.cf55848.svg"
         style="fill:#ffffff;fill-opacity:1">
        <g
           id="logo.cf55848.svg-2"
           style="fill:#ffffff;fill-opacity:1">
          <g
             id="PLANAR"
             class="cls-5"
             style="isolation:isolate;fill:#ffffff;fill-opacity:1">
            <g
               class="cls-5"
               id="g7"
               style="isolation:isolate;fill:#ffffff;fill-opacity:1">
              <path
                 class="cls-4"
                 d="M 138.84,62.06 V 72.7 H 126.65 V 26.51 c 5.32,-0.59 10.49,-1.11 17.07,-1.11 9.38,0 18.33,2.07 24.68,5.76 v 25.42 c -6.36,3.69 -15.3,5.76 -24.68,5.76 -1.77,0 -3.4,-0.07 -4.88,-0.3 z m 0,-10.94 c 1.55,0.15 5.84,0.22 8.13,0.22 3.92,0 6.8,-0.81 9.53,-2.29 V 38.7 c -2.73,-1.48 -5.62,-2.29 -9.53,-2.29 -2.29,0 -6.65,0.07 -8.13,0.22 v 14.48 z"
                 id="path2"
                 style="fill:#bababa;fill-opacity:1;stroke-width:0px" />
              <path
                 class="cls-4"
                 d="M 229.66,72.7 H 195.89 V 26.51 h 12.19 v 35.84 h 21.58 z"
                 id="path3"
                 style="fill:#bababa;fill-opacity:1;stroke-width:0px" />
              <path
                 class="cls-4"
                 d="M 285.09,59.69 H 267.35 V 72.7 H 255.23 V 31.17 c 6.95,-4.06 13.89,-5.76 20.99,-5.76 7.1,0 13.97,1.7 20.91,5.76 V 72.7 H 285.08 V 59.69 Z M 267.35,49.13 h 17.74 V 38.49 c -2.88,-1.4 -5.69,-2 -8.87,-2 -3.18,0 -6.06,0.59 -8.87,2 z"
                 id="path4"
                 style="fill:#bababa;fill-opacity:1;stroke-width:0px" />
              <path
                 class="cls-4"
                 d="M 336.89,44.18 V 72.7 H 325.73 V 26.51 h 11.97 l 18.92,28.52 V 26.51 h 11.16 V 72.7 h -11.97 z"
                 id="path5"
                 style="fill:#bababa;fill-opacity:1;stroke-width:0px" />
              <path
                 class="cls-4"
                 d="M 426.23,59.69 H 408.49 V 72.7 H 396.37 V 31.17 c 6.95,-4.06 13.89,-5.76 20.99,-5.76 7.1,0 13.97,1.7 20.91,5.76 V 72.7 H 426.22 V 59.69 Z M 408.5,49.13 h 17.74 V 38.49 c -2.88,-1.4 -5.69,-2 -8.87,-2 -3.18,0 -6.06,0.59 -8.87,2 z"
                 id="path6"
                 style="fill:#bababa;fill-opacity:1;stroke-width:0px" />
              <path
                 class="cls-4"
                 d="M 479.07,59.84 V 72.7 H 466.88 V 26.51 c 5.17,-0.67 10.35,-1.11 16.85,-1.11 9.38,0 18.33,2.07 24.68,5.76 V 55.1 c -2.59,1.4 -5.25,2.51 -8.13,3.18 l 8.87,14.41 h -13.38 l -7.54,-12.71 c -0.52,0.07 -1.11,0.07 -1.63,0.07 -2.66,0 -5.17,-0.07 -7.54,-0.22 z m 0,-9.68 c 2.22,0.15 4.58,0.22 7.17,0.22 h 1.33 c 3.7,-0.07 6.36,-0.89 8.87,-2.29 v -9.38 c -2.51,-1.4 -5.17,-2.22 -8.87,-2.29 h -1.33 c -2.59,0 -5.03,0.07 -7.17,0.22 z"
                 id="path7"
                 style="fill:#bababa;fill-opacity:1;stroke-width:0px" />
            </g>
          </g>
        </g>
      </g>
    </g>
  </g>
</svg>
