<?xml version="1.0" encoding="utf-8"?>
<!-- Generator: Adobe Illustrator 28.2.0, SVG Export Plug-In . SVG Version: 6.00 Build 0)  -->
<svg version="1.1" id="Layer_1" xmlns="http://www.w3.org/2000/svg" xmlns:xlink="http://www.w3.org/1999/xlink" x="0px" y="0px"
	 viewBox="0 0 200 200" style="enable-background:new 0 0 200 200;" xml:space="preserve">
<style type="text/css">
	.st0{clip-path:url(#SVGID_00000107586187687112748100000008038360425680799648_);fill:#F9FF00;}
</style>
<g>
	<defs>
		<rect id="SVGID_1_" x="110" y="101.5" width="35" height="51.7"/>
	</defs>
	<clipPath id="SVGID_00000042704420610211128420000010708457010733977529_">
		<use xlink:href="#SVGID_1_"  style="overflow:visible;"/>
	</clipPath>
	<path style="clip-path:url(#SVGID_00000042704420610211128420000010708457010733977529_);fill:#F9FF00;" d="M112,101.6
		c-0.9-0.5-2,0.1-2,1.1l0,23.4l0,25.7c0,1,1.1,1.7,2,1.1l9.1-5.2c0.4-0.2,0.7-0.7,0.7-1.1v-10.3c0-1,1.1-1.7,2-1.1l9,5.2
		c0.4,0.2,0.9,0.2,1.3,0l10.2-6c0.4-0.2,0.7-0.7,0.7-1.1v-11.8c0-0.5-0.3-0.9-0.7-1.1L112,101.6z M131.4,137.8l-18.3-10.5
		c-0.9-0.5-0.9-1.8,0-2.3l7.8-4.3c0.4-0.2,0.7-0.7,0.7-1.2l0-8c0-1,1.1-1.7,2-1.1l9.1,5.2c0.4,0.2,0.7,0.7,0.7,1.1v19.9
		C133.4,137.6,132.3,138.3,131.4,137.8"/>
</g>
</svg>
