<svg
      width="123"
      height="30"
      viewBox="0 0 123 30"
      fill="none"
      xmlns="http://www.w3.org/2000/svg"
    >
      <path
        d="M5.55 11.6399L5.58 5.78987L11.145 8.99986V21.1049L0 14.7299L5.55 11.6399ZM0 14.7299V27.7649L5.565 24.5549V18.1799L11.13 21.3899L16.62 18.1649V11.8199L0 2.23486V14.7299Z"
        fill="url(#paint0_linear_70_2042)"
      />
      <path
        d="M33.0051 18.2851V20.7001H30.2451V10.2301C31.4451 10.0951 32.6301 9.9751 34.1151 9.9751C36.2451 9.9751 38.2701 10.4401 39.7101 11.2801V17.0401C38.2701 17.8801 36.2451 18.3451 34.1151 18.3451C33.7101 18.3451 33.3501 18.3301 33.0051 18.2851ZM33.0051 15.8101C33.3501 15.8401 34.3251 15.8551 34.8501 15.8551C35.7351 15.8551 36.3951 15.6751 37.0101 15.3301V12.9901C36.3951 12.6601 35.7351 12.4651 34.8501 12.4651C34.3251 12.4651 33.3501 12.4801 33.0051 12.5101V15.8101Z"
        fill="#FAFAFA"
      />
      <path
        d="M53.5699 20.7H45.9199V10.23H48.6799V18.345H53.5699V20.7Z"
        fill="#FAFAFA"
      />
      <path
        d="M66.14 17.7451H62.12V20.7001H59.375V11.2801C60.95 10.3651 62.525 9.9751 64.13 9.9751C65.735 9.9751 67.295 10.3651 68.87 11.2801V20.7001H66.14V17.7451ZM62.12 15.3601H66.14V12.9451C65.48 12.6301 64.85 12.4951 64.13 12.4951C63.41 12.4951 62.75 12.6301 62.12 12.9451V15.3601Z"
        fill="#FAFAFA"
      />
      <path
        d="M77.87 14.235V20.7H75.335V10.23H78.05L82.34 16.695V10.23H84.875V20.7H82.16L77.87 14.235Z"
        fill="#FAFAFA"
      />
      <path
        d="M98.1195 17.7451H94.0995V20.7001H91.3545V11.2801C92.9295 10.3651 94.5045 9.9751 96.1095 9.9751C97.7145 9.9751 99.2745 10.3651 100.849 11.2801V20.7001H98.1195V17.7451ZM94.0995 15.3601H98.1195V12.9451C97.4595 12.6301 96.8295 12.4951 96.1095 12.4951C95.3895 12.4951 94.7295 12.6301 94.0995 12.9451V15.3601Z"
        fill="#FAFAFA"
      />
      <path
        d="M110.09 17.7751V20.7001H107.33V10.2301C108.5 10.0801 109.67 9.9751 111.155 9.9751C113.285 9.9751 115.31 10.4401 116.75 11.2801V16.7101C116.165 17.0251 115.565 17.2801 114.905 17.4301L116.9 20.7001H113.87L112.16 17.8201C112.04 17.8351 111.905 17.8351 111.785 17.8351C111.2 17.8351 110.63 17.8201 110.09 17.7751ZM110.09 15.5851C110.585 15.6151 111.125 15.6301 111.71 15.6301H112.01C112.85 15.6151 113.45 15.4351 114.02 15.1051V12.9901C113.45 12.6751 112.85 12.4951 112.01 12.4651H111.71C111.125 12.4651 110.57 12.4801 110.09 12.5101V15.5851Z"
        fill="#FAFAFA"
      />
      <defs>
        <linearGradient
          id="paint0_linear_70_2042"
          x1="-6.52891e-07"
          y1="28"
          x2="17"
          y2="2"
          gradientUnits="userSpaceOnUse"
        >
          <stop stopColor="#4E4FFF" />
          <stop offset="1" stopColor="#A158FF" />
        </linearGradient>
      </defs>
    </svg>
