<?xml version="1.0" encoding="UTF-8"?>
<svg id="Layer_2" data-name="Layer 2" xmlns="http://www.w3.org/2000/svg" xmlns:xlink="http://www.w3.org/1999/xlink" viewBox="0 0 200 200">
  <defs>
    <style>
      .cls-1 {
        clip-path: url(#clippath);
      }

      .cls-2 {
        fill: none;
      }

      .cls-2, .cls-3, .cls-4 {
        stroke-width: 0px;
      }

      .cls-3 {
        fill: url(#linear-gradient);
      }

      .cls-5 {
        clip-path: url(#clippath-1);
      }

      .cls-4 {
        fill: #f9ff00;
      }
    </style>
    <linearGradient id="linear-gradient" x1="157.31" y1="195.29" x2="47.5" y2="12.7" gradientUnits="userSpaceOnUse">
      <stop offset="0" stop-color="#000"/>
      <stop offset="1" stop-color="#231f20"/>
    </linearGradient>
    <clipPath id="clippath">
      <rect class="cls-2" x="76.68" y="57.57" width="62.39" height="92.28"/>
    </clipPath>
    <clipPath id="clippath-1">
      <rect class="cls-2" x="76.68" y="57.57" width="62.39" height="92.28"/>
    </clipPath>
  </defs>
  <g id="Layer_1-2" data-name="Layer 1">
    <g>
      <circle class="cls-3" cx="100" cy="100" r="100"/>
      <g class="cls-1">
        <path class="cls-4" d="M80.22,57.89c-1.58-.91-3.55.23-3.55,2.05v41.69s0,45.86,0,45.86c0,1.82,1.97,2.96,3.55,2.05l16.15-9.32c.73-.42,1.18-1.2,1.18-2.05v-18.45c0-1.82,1.97-2.96,3.55-2.05l16.15,9.33c.74.43,1.65.42,2.38,0l18.26-10.72c.72-.42,1.17-1.2,1.17-2.04v-21.08c0-.85-.45-1.63-1.18-2.05l-57.66-33.2ZM114.91,122.34l-32.58-18.66c-1.6-.92-1.58-3.22.02-4.12l13.92-7.76c.75-.42,1.21-1.2,1.21-2.06l.06-14.23c0-1.82,1.98-2.95,3.55-2.04l16.17,9.35c.73.42,1.18,1.2,1.18,2.05v35.42c0,1.82-1.96,2.96-3.54,2.05"/>
      </g>
      <g class="cls-5">
        <path class="cls-4" d="M80.22,57.89c-1.58-.91-3.55.23-3.55,2.05v41.69s0,45.86,0,45.86c0,1.82,1.97,2.96,3.55,2.05l16.15-9.32c.73-.42,1.18-1.2,1.18-2.05v-18.45c0-1.82,1.97-2.96,3.55-2.05l16.15,9.33c.74.43,1.65.42,2.38,0l18.26-10.72c.72-.42,1.17-1.2,1.17-2.04v-21.08c0-.85-.45-1.63-1.18-2.05l-57.66-33.2ZM114.91,122.34l-32.58-18.66c-1.6-.92-1.58-3.22.02-4.12l13.92-7.76c.75-.42,1.21-1.2,1.21-2.06l.06-14.23c0-1.82,1.98-2.95,3.55-2.04l16.17,9.35c.73.42,1.18,1.2,1.18,2.05v35.42c0,1.82-1.96,2.96-3.54,2.05"/>
      </g>
    </g>
  </g>
</svg>