<?xml version="1.0" encoding="UTF-8"?>
<svg id="Layer_2" data-name="Layer 2" xmlns="http://www.w3.org/2000/svg" viewBox="0 0 239.2 239.2">
  <defs>
    <style>
      .cls-1 {
        fill: #000;
      }

      .cls-1, .cls-2 {
        stroke-width: 0px;
      }

      .cls-2 {
        fill: #f9ff00;
      }
    </style>
  </defs>
  <g id="Layer_1-2" data-name="Layer 1">
    <g>
      <circle class="cls-1" cx="119.6" cy="119.6" r="119.6"/>
      <path class="cls-2" d="M87.37,55.02c-2.38-1.37-5.34.35-5.34,3.09l.02,62.79-.02,69.07c0,2.74,2.97,4.46,5.34,3.09l24.33-14.04c1.1-.64,1.78-1.81,1.78-3.09v-27.78c0-2.74,2.97-4.46,5.35-3.09l24.32,14.05c1.11.64,2.48.64,3.59-.01l27.5-16.15c1.09-.64,1.76-1.81,1.76-3.07v-31.76c0-1.27-.68-2.45-1.78-3.09l-86.84-50.01ZM139.62,152.1l-49.08-28.11c-2.41-1.38-2.39-4.86.04-6.21l20.97-11.68c1.12-.63,1.82-1.81,1.83-3.1l.09-21.43c.01-2.74,2.98-4.44,5.35-3.07l24.36,14.08c1.1.64,1.78,1.81,1.78,3.09v53.34c0,2.74-2.96,4.45-5.34,3.09"/>
    </g>
  </g>
</svg>