<svg width="449" height="429" xmlns="http://www.w3.org/2000/svg" version="1.1">
 <g>
  <title>Layer 1</title>
  <path d="m34.10299,29.70401c-12.602,0 -22.398,9.7969 -22.398,22.398c0,12.602 9.7969,22.398 22.398,22.398l347.2,0l0,-44.801l-347.2,0.005zm-33.602,51.977l0,289.62c0,15.512 12.488,28 28,28l392,0c15.512,0 28,-12.488 28,-28l0,-50.398l-173.6,0c-15.316,0 -28,-12.684 -28,-28l0,-89.602c0,-15.316 12.684,-28 28,-28l173.6,0l0,-50.398c0,-15.512 -12.488,-28 -28,-28l-391.65,-0.34766c-11.223,-1.3359 -21.223,-6.7734 -28.352,-14.875l0.002,0.00066zm274.4,116.02c-3.2969,0 -5.6016,2.3047 -5.6016,5.6016l0,89.602c0,3.2969 2.3047,5.6016 5.6016,5.6016l173.6,0l0,-100.8l-173.6,-0.0052zm56,33.602c9.2773,0 16.801,7.5195 16.801,16.801c0,9.2773 -7.5234,16.801 -16.801,16.801c-9.2773,0 -16.801,-7.5195 -16.801,-16.801c0,-9.2773 7.5234,-16.801 16.801,-16.801z" id="svg_23" fill="#FCFC03"/>
 </g>

</svg>
