<?xml version="1.0" encoding="UTF-8"?>
<svg id="Layer_2" data-name="Layer 2" xmlns="http://www.w3.org/2000/svg" xmlns:xlink="http://www.w3.org/1999/xlink" viewBox="0 0 200 200">
  <defs>
    <style>
      .cls-1 {
        clip-path: url(#clippath);
      }

      .cls-2 {
        fill: none;
      }

      .cls-2, .cls-3, .cls-4 {
        stroke-width: 0px;
      }

      .cls-4 {
        fill: #f9ff00;
      }
    </style>
    <clipPath id="clippath">
      <circle class="cls-2" cx="100" cy="100" r="95.29"/>
    </clipPath>
  </defs>
  <g id="Layer_1-2" data-name="Layer 1">
    <g>
      <g>
        <circle class="cls-4" cx="100" cy="100" r="100"/>
        <g class="cls-1">
          <path class="cls-3" d="M189.97,156.85c-4.82-15-11.46-29.59-19.62-43.43-4.88-8.26-4.85-18.51.02-26.78,8.09-13.76,14.68-28.3,19.42-43.36,6.4-20.29-12.76-39.45-33.05-33.05-15.05,4.74-29.59,11.32-43.34,19.41-8.28,4.87-18.53,4.87-26.8,0-13.75-8.09-28.29-14.66-43.34-19.41C22.97,3.83,3.81,22.98,10.21,43.27c4.75,15.06,11.33,29.61,19.42,43.36,4.87,8.27,4.89,18.52.02,26.78-8.17,13.84-14.81,28.43-19.62,43.43-.04.13-.08.27-.12.4-6.19,20.1,12.75,39.05,32.86,32.87.14-.04.27-.08.41-.13,15.01-4.82,29.61-11.47,43.46-19.64,8.25-4.87,18.5-4.87,26.76,0,13.85,8.17,28.45,14.82,43.46,19.64.13.04.27.08.4.12,20.1,6.19,39.05-12.75,32.86-32.86-.04-.14-.08-.27-.13-.41Z"/>
        </g>
      </g>
      <path class="cls-4" d="M80.22,55.49c-1.58-.91-3.55.23-3.55,2.05v41.69s0,45.86,0,45.86c0,1.82,1.97,2.96,3.55,2.05l16.15-9.32c.73-.42,1.18-1.2,1.18-2.05v-18.45c0-1.82,1.97-2.96,3.55-2.05l16.15,9.33c.74.43,1.65.42,2.38,0l18.26-10.72c.72-.42,1.17-1.2,1.17-2.04v-21.08c0-.85-.45-1.63-1.18-2.05l-57.66-33.2ZM114.91,119.94l-32.58-18.66c-1.6-.92-1.58-3.22.02-4.12l13.92-7.76c.75-.42,1.21-1.2,1.21-2.06l.06-14.23c0-1.82,1.98-2.95,3.55-2.04l16.17,9.35c.73.42,1.18,1.2,1.18,2.05v35.42c0,1.82-1.96,2.96-3.54,2.05"/>
    </g>
  </g>
</svg>