<svg width="600" height="600" xmlns="http://www.w3.org/2000/svg">
 <defs>
  <clipPath id="clip-path">
   <path id="svg_1" d="m7.822,15.267l0.032,-10.257l7.854,4.539l0,17.07l-15.7,-9l7.814,-2.352zm-7.822,2.356l0,18.377l7.854,-4.53l0,-8.992l7.854,4.538l7.751,-4.553l0,-8.952l-23.459,-13.511l0,17.623z"/>
  </clipPath>
  <linearGradient y2="1" x2="0.5" y1="0" x1="0.5" id="linear-gradient">
   <stop stop-color="#fff" offset="0"/>
   <stop stop-color="#fff" offset="1"/>
  </linearGradient>
 </defs>
 <g>
  <title>Layer 1</title>
  <circle id="svg_3" fill="url(#linear-gradient)" r="300" cy="300" cx="300" class="cls-1"/>
  <path stroke="null" id="svg_7" fill="#000" d="m256.55409,247.1094l0.47213,-92.08687l87.60015,50.52936l0,190.54875l-175.43648,-100.35064l87.36397,-48.64061l0.00023,0zm-87.36397,48.64061l0,205.18754l87.60015,-50.52959l0,-100.35064l87.60015,50.52959l86.41971,-50.76554l0,-99.87828l-261.62001,-150.88068l0,196.68782l0,-0.00023z"/>
 </g>
</svg>
