<?xml version="1.0" encoding="UTF-8"?>
<svg id="Layer_2" data-name="Layer 2" xmlns="http://www.w3.org/2000/svg" viewBox="0 0 123.53 123.53">
  <defs>
    <style>
      .cls-1 {
        fill: #61c5dd;
      }

      .cls-1, .cls-2 {
        stroke-width: 0px;
      }

      .cls-2 {
        fill: #fff;
      }
    </style>
  </defs>
  <g id="flat_style" data-name="flat style">
    <g>
      <circle class="cls-1" cx="61.76" cy="61.76" r="61.76"/>
      <path class="cls-2" d="M55.37,44.76l-25.15,42.25-4.3-7.05,30.51-51.38,24.24,40.82h-8.58l-8.91-15-5.68-9.57s-.05-.07-.07-.1c-.22-.33-.57-.54-.97-.56-.46-.02-.86.21-1.08.59ZM83.85,71.22c-.22.38-.62.61-1.06.61h-29.25l-4.11,6.92h48.18l-30.48-51.34h-8.58l25.28,42.58c.22.38.23.84.01,1.22ZM46.24,80.57c-.22-.38-.21-.85.01-1.22l14.45-24.34-4.29-7.22-24.03,40.32h60.97l4.22-6.92h-50.29c-.44,0-.84-.23-1.05-.61Z"/>
    </g>
  </g>
</svg>