<?xml version="1.0" encoding="UTF-8"?>
<svg id="Layer_2" data-name="Layer 2" xmlns="http://www.w3.org/2000/svg" viewBox="0 0 123.53 123.53">
  <defs>
    <style>
      .cls-1 {
        fill: #7cc711;
      }

      .cls-1, .cls-2 {
        stroke-width: 0px;
      }

      .cls-2 {
        fill: #fff;
      }
    </style>
  </defs>
  <g id="flat_style" data-name="flat style">
    <g>
      <circle class="cls-1" cx="61.76" cy="61.76" r="61.76"/>
      <path class="cls-2" d="M87.34,75.25l5.98-3.67v9.29l-7.47,4.58v-9.29h0l1.49-.91ZM82.17,63.54l-1.2-.7-1.2-.7-7.91-4.66-7.71,4.54,7.91,4.66,1.2.7,1.2.7,10.17,5.99,7.55-4.63-10.01-5.9ZM70.87,68.79l-1.2-.7-6.7-3.95h0v33.45l7.47-4.58v-13.04c0-.44.23-.84.61-1.05.38-.22.84-.21,1.22,0l11.15,6.57v-9.32h0l-11.36-6.69-1.2-.7ZM74.25,56.07l7.91,4.66,11.15-6.57v-9.32l-19.07,11.23ZM64.03,36.68l-1.05.65h0v22.56h0l6.49-3.82,1.2-.7,1.2-.7,20.31-11.96h0l-7.55-4.63-12.36,7.21c-.37.22-.84.22-1.22,0-.38-.22-.61-.62-.61-1.05v-11.48l-6.41,3.93ZM30.21,71.59v9.29l7.47,4.58v-9.29l-1.49-.91-5.98-3.67ZM69.34,30.58l-7.57-4.64-7.57,4.64,2.14,1.31,5.43,3.33,5.62-3.45,1.95-1.2ZM53.08,93.01l7.47,4.58v-21.32l-7.47,4.4v12.34ZM51.87,69.25l-1.21.71-10.56,6.22v9.32l10.56-6.22,1.21-.71,1.21-.71,7.47-4.4v-9.32l-7.47,4.4-1.21.71ZM53.08,32.75v22.75l7.47,4.4v-22.56h0l-1.49-.91-5.98-3.67ZM50.66,44.99l-11.76-6.92-7.55,4.63,19.31,11.37v-9.08ZM51.87,66.43l1.21-.71,6.29-3.7h0,0s-7.5-4.42-7.5-4.42l-.62-.37-.59-.35-20.45-12.04h0v9.32l11.77,6.93c.37.22.6.62.6,1.05s-.23.83-.6,1.05l-10.63,6.26,7.55,4.63h0s11.76-6.92,11.76-6.92l1.21-.72Z"/>
    </g>
  </g>
</svg>