<?xml version="1.0" encoding="UTF-8"?>
<svg id="Layer_2" data-name="Layer 2" xmlns="http://www.w3.org/2000/svg" viewBox="0 0 123.53 123.53">
  <defs>
    <style>
      .cls-1 {
        fill: #fff;
      }

      .cls-1, .cls-2 {
        stroke-width: 0px;
      }

      .cls-2 {
        fill: #e6383a;
      }
    </style>
  </defs>
  <g id="flat_style" data-name="flat style">
    <g>
      <circle class="cls-2" cx="61.76" cy="61.76" r="61.76"/>
      <path class="cls-1" d="M44.45,70l15.97,27.74h-8.77s-15.97-27.74-15.97-27.74h8.77ZM62.84,37.45c.31.08.57.28.74.57l6.11,10.62,4.41,7.66,4.39-7.62-10.87-18.9h-33.33s-4.39,7.63-4.39,7.63h32.63c.11,0,.21.01.32.04ZM35.68,67.58h8.77s0,0,0,0l10.18-17.69h-8.77s-10.18,17.69-10.18,17.69ZM81.08,48.52c.03.26,0,.53-.14.76l-5.79,10.05h0c-.22.38-.62.61-1.05.61h-10.87s-1.7,2.95-1.7,2.95l-2.7,4.68h15.25s5.1,0,5.1,0h0l15.97-27.74h-18.96s0,0,0,0l4.74,8.24c.08.14.12.29.14.45ZM97.25,41.05l-15.96,27.74,4.39,7.63,15.96-27.74-4.39-7.63ZM74.08,70h-15.25s4.39,7.63,4.39,7.63h10.87s.02,0,.04,0h9.44s-4.39-7.63-4.39-7.63h-5.1ZM61.47,79.45l-5.79-10.05s0,0,0,0c-.11-.19-.16-.4-.16-.61s.05-.42.16-.61l5.44-9.45-4.39-7.63-10.18,17.68,3.11,5.4,12.86,22.34,9.47-16.47h0s-9.48,0-9.48,0c-.43,0-.84-.23-1.05-.61ZM43.24,49.56l.86-1.49c.11-.19.26-.34.44-.45.02-.01.05-.02.08-.03.07-.03.14-.07.22-.09.1-.03.21-.04.32-.04h11.57c.11,0,.21.01.32.04.2.05.38.16.52.31.03.03.06.06.08.1.01.02.03.03.04.05.03.04.06.07.09.12h0s5.44,9.45,5.44,9.45h8.77s-10.18-17.69-10.18-17.69h-31.93s9.48,16.46,9.48,16.46l3.88-6.74Z"/>
    </g>
  </g>
</svg>