<?xml version="1.0" encoding="UTF-8"?>
<svg id="Layer_2" data-name="Layer 2" xmlns="http://www.w3.org/2000/svg" viewBox="0 0 123.53 123.53">
  <defs>
    <style>
      .cls-1 {
        fill: #fff;
      }

      .cls-1, .cls-2 {
        stroke-width: 0px;
      }

      .cls-2 {
        fill: #ffb602;
      }
    </style>
  </defs>
  <g id="flat_style" data-name="flat style">
    <g>
      <circle class="cls-2" cx="61.76" cy="61.76" r="61.76"/>
      <path class="cls-1" d="M86.85,46.96l10.13,5.89-23.22,13.49-10.77,6.25h0v-11.76h0l11.9-6.91s.02,0,.04-.01c0,0,0,0,0,0l11.93-6.94ZM74.3,51.44l11.33-6.59h0v-11.75l-21.45,12.45,10.12,5.88h0ZM71.88,52.84l-33.99-19.74v11.75l23.87,13.86,10.12-5.88ZM51.64,96.54l10.12,5.88,10.12-5.88-10.12-5.89-10.12,5.89ZM26.55,52.85l21.45,12.45v-11.75l-11.33-6.59-10.13,5.89ZM62.98,88.55h0s8.05,4.68,8.05,4.68l2.07,1.2v-24.91l-10.11,5.87v13.16ZM35.47,44.86h0v-11.75l-10.11,5.87v11.76l2.07-1.2,8.05-4.68ZM60.55,88.55h0v-27.73h0l-.12-.07-10-5.8v39.48l2.53-1.47,7.59-4.41ZM88.06,33.11v11.75h0s7.95,4.62,7.95,4.62l2.17,1.26v-11.76l-10.11-5.87Z"/>
    </g>
  </g>
</svg>