<?xml version="1.0" standalone="no"?>
<!DOCTYPE svg PUBLIC "-//W3C//DTD SVG 20010904//EN"
 "http://www.w3.org/TR/2001/REC-SVG-20010904/DTD/svg10.dtd">
<svg version="1.0" xmlns="http://www.w3.org/2000/svg"
 width="1280.000000pt" height="1280.000000pt" viewBox="0 0 1280.000000 1280.000000"
 preserveAspectRatio="xMidYMid meet">
<metadata>
Created by potrace 1.15, written by Peter Selinger 2001-2017
</metadata>
<g transform="translate(0.000000,1280.000000) scale(0.100000,-0.100000)"
fill="#9e9e9e" stroke="none">
<path d="M0 12255 l0 -545 33 0 c83 0 121 32 563 472 438 436 482 488 492 573
l5 45 -547 0 -546 0 0 -545z"/>
<path d="M1472 12755 c10 -85 54 -137 492 -573 470 -468 475 -472 596 -472
121 0 126 4 596 472 438 436 482 488 492 573 l5 45 -1093 0 -1093 0 5 -45z"/>
<path d="M4032 12755 c10 -85 54 -137 492 -573 470 -468 475 -472 596 -472
121 0 126 4 596 472 438 436 482 488 492 573 l5 45 -1093 0 -1093 0 5 -45z"/>
<path d="M6592 12755 c10 -85 54 -137 492 -573 470 -468 475 -472 596 -472
121 0 126 4 596 472 438 436 482 488 492 573 l5 45 -1093 0 -1093 0 5 -45z"/>
<path d="M9152 12755 c10 -85 54 -137 492 -573 470 -468 475 -472 596 -472
121 0 126 4 596 472 438 436 482 488 492 573 l5 45 -1093 0 -1093 0 5 -45z"/>
<path d="M11712 12755 c10 -85 54 -137 492 -573 442 -440 480 -472 563 -472
l33 0 0 545 0 545 -546 0 -547 0 5 -45z"/>
<path d="M1160 12584 c-46 -21 -124 -94 -487 -457 -492 -492 -488 -487 -481
-621 3 -61 9 -81 38 -129 23 -38 170 -192 454 -475 480 -478 479 -477 609
-471 62 4 82 9 130 39 38 23 192 170 475 454 478 480 477 479 471 609 -4 62
-9 82 -39 130 -23 38 -170 192 -454 475 -470 468 -475 472 -595 472 -49 0 -80
-7 -121 -26z"/>
<path d="M3720 12584 c-46 -21 -124 -94 -487 -457 -492 -492 -488 -487 -481
-621 3 -61 9 -81 38 -129 23 -38 170 -192 454 -475 480 -478 479 -477 609
-471 62 4 82 9 130 39 38 23 192 170 475 454 478 480 477 479 471 609 -4 62
-9 82 -39 130 -23 38 -170 192 -454 475 -470 468 -475 472 -595 472 -49 0 -80
-7 -121 -26z"/>
<path d="M6280 12584 c-46 -21 -124 -94 -487 -457 -492 -492 -488 -487 -481
-621 3 -61 9 -81 38 -129 23 -38 170 -192 454 -475 480 -478 479 -477 609
-471 62 4 82 9 130 39 38 23 192 170 475 454 478 480 477 479 471 609 -4 62
-9 82 -39 130 -23 38 -170 192 -454 475 -470 468 -475 472 -595 472 -49 0 -80
-7 -121 -26z"/>
<path d="M8840 12584 c-46 -21 -124 -94 -487 -457 -492 -492 -488 -487 -481
-621 3 -61 9 -81 38 -129 23 -38 170 -192 454 -475 480 -478 479 -477 609
-471 62 4 82 9 130 39 38 23 192 170 475 454 478 480 477 479 471 609 -4 62
-9 82 -39 130 -23 38 -170 192 -454 475 -470 468 -475 472 -595 472 -49 0 -80
-7 -121 -26z"/>
<path d="M11400 12584 c-46 -21 -124 -94 -487 -457 -492 -492 -488 -487 -481
-621 3 -61 9 -81 38 -129 23 -38 170 -192 454 -475 480 -478 479 -477 609
-471 62 4 82 9 130 39 38 23 192 170 475 454 478 480 477 479 471 609 -4 62
-9 82 -39 130 -23 38 -170 192 -454 475 -470 468 -475 472 -595 472 -49 0 -80
-7 -121 -26z"/>
<path d="M0 10240 l0 -1093 45 5 c85 10 137 54 573 492 468 470 472 475 472
596 0 121 -4 126 -472 596 -436 438 -488 482 -573 492 l-45 5 0 -1093z"/>
<path d="M2440 11304 c-46 -21 -124 -94 -487 -457 -492 -492 -488 -487 -481
-621 3 -61 9 -81 38 -129 23 -38 170 -192 454 -475 480 -478 479 -477 609
-471 62 4 82 9 130 39 38 23 192 170 475 454 478 480 477 479 471 609 -4 62
-9 82 -39 130 -23 38 -170 192 -454 475 -470 468 -475 472 -595 472 -49 0 -80
-7 -121 -26z"/>
<path d="M5000 11304 c-46 -21 -124 -94 -487 -457 -492 -492 -488 -487 -481
-621 3 -61 9 -81 38 -129 23 -38 170 -192 454 -475 480 -478 479 -477 609
-471 62 4 82 9 130 39 38 23 192 170 475 454 478 480 477 479 471 609 -4 62
-9 82 -39 130 -23 38 -170 192 -454 475 -470 468 -475 472 -595 472 -49 0 -80
-7 -121 -26z"/>
<path d="M7560 11304 c-46 -21 -124 -94 -487 -457 -492 -492 -488 -487 -481
-621 3 -61 9 -81 38 -129 23 -38 170 -192 454 -475 480 -478 479 -477 609
-471 62 4 82 9 130 39 38 23 192 170 475 454 478 480 477 479 471 609 -4 62
-9 82 -39 130 -23 38 -170 192 -454 475 -470 468 -475 472 -595 472 -49 0 -80
-7 -121 -26z"/>
<path d="M10120 11304 c-46 -21 -124 -94 -487 -457 -492 -492 -488 -487 -481
-621 3 -61 9 -81 38 -129 23 -38 170 -192 454 -475 480 -478 479 -477 609
-471 62 4 82 9 130 39 38 23 192 170 475 454 478 480 477 479 471 609 -4 62
-9 82 -39 130 -23 38 -170 192 -454 475 -470 468 -475 472 -595 472 -49 0 -80
-7 -121 -26z"/>
<path d="M12680 11304 c-46 -21 -124 -94 -487 -457 -482 -482 -483 -483 -483
-608 0 -120 4 -125 472 -595 436 -438 488 -482 573 -492 l45 -5 0 1092 0 1091
-32 0 c-18 0 -58 -12 -88 -26z"/>
<path d="M1160 10024 c-46 -21 -124 -94 -487 -457 -492 -492 -488 -487 -481
-621 3 -61 9 -81 38 -129 23 -38 170 -192 454 -475 480 -478 479 -477 609
-471 62 4 82 9 130 39 38 23 192 170 475 454 478 480 477 479 471 609 -4 62
-9 82 -39 130 -23 38 -170 192 -454 475 -470 468 -475 472 -595 472 -49 0 -80
-7 -121 -26z"/>
<path d="M3720 10024 c-46 -21 -124 -94 -487 -457 -492 -492 -488 -487 -481
-621 3 -61 9 -81 38 -129 23 -38 170 -192 454 -475 480 -478 479 -477 609
-471 62 4 82 9 130 39 38 23 192 170 475 454 478 480 477 479 471 609 -4 62
-9 82 -39 130 -23 38 -170 192 -454 475 -470 468 -475 472 -595 472 -49 0 -80
-7 -121 -26z"/>
<path d="M6280 10024 c-46 -21 -124 -94 -487 -457 -492 -492 -488 -487 -481
-621 3 -61 9 -81 38 -129 23 -38 170 -192 454 -475 480 -478 479 -477 609
-471 62 4 82 9 130 39 38 23 192 170 475 454 478 480 477 479 471 609 -4 62
-9 82 -39 130 -23 38 -170 192 -454 475 -470 468 -475 472 -595 472 -49 0 -80
-7 -121 -26z"/>
<path d="M8840 10024 c-46 -21 -124 -94 -487 -457 -492 -492 -488 -487 -481
-621 3 -61 9 -81 38 -129 23 -38 170 -192 454 -475 480 -478 479 -477 609
-471 62 4 82 9 130 39 38 23 192 170 475 454 478 480 477 479 471 609 -4 62
-9 82 -39 130 -23 38 -170 192 -454 475 -470 468 -475 472 -595 472 -49 0 -80
-7 -121 -26z"/>
<path d="M11400 10024 c-46 -21 -124 -94 -487 -457 -492 -492 -488 -487 -481
-621 3 -61 9 -81 38 -129 23 -38 170 -192 454 -475 480 -478 479 -477 609
-471 62 4 82 9 130 39 38 23 192 170 475 454 478 480 477 479 471 609 -4 62
-9 82 -39 130 -23 38 -170 192 -454 475 -470 468 -475 472 -595 472 -49 0 -80
-7 -121 -26z"/>
<path d="M0 7680 l0 -1093 45 5 c85 10 137 54 573 492 468 470 472 475 472
596 0 121 -4 126 -472 596 -436 438 -488 482 -573 492 l-45 5 0 -1093z"/>
<path d="M2440 8744 c-46 -21 -124 -94 -487 -457 -492 -492 -488 -487 -481
-621 3 -61 9 -81 38 -129 23 -38 170 -192 454 -475 480 -478 479 -477 609
-471 62 4 82 9 130 39 38 23 192 170 475 454 478 480 477 479 471 609 -4 62
-9 82 -39 130 -23 38 -170 192 -454 475 -470 468 -475 472 -595 472 -49 0 -80
-7 -121 -26z"/>
<path d="M5000 8744 c-46 -21 -124 -94 -487 -457 -492 -492 -488 -487 -481
-621 3 -61 9 -81 38 -129 23 -38 170 -192 454 -475 480 -478 479 -477 609
-471 62 4 82 9 130 39 38 23 192 170 475 454 478 480 477 479 471 609 -4 62
-9 82 -39 130 -23 38 -170 192 -454 475 -470 468 -475 472 -595 472 -49 0 -80
-7 -121 -26z"/>
<path d="M7560 8744 c-46 -21 -124 -94 -487 -457 -492 -492 -488 -487 -481
-621 3 -61 9 -81 38 -129 23 -38 170 -192 454 -475 480 -478 479 -477 609
-471 62 4 82 9 130 39 38 23 192 170 475 454 478 480 477 479 471 609 -4 62
-9 82 -39 130 -23 38 -170 192 -454 475 -470 468 -475 472 -595 472 -49 0 -80
-7 -121 -26z"/>
<path d="M10120 8744 c-46 -21 -124 -94 -487 -457 -492 -492 -488 -487 -481
-621 3 -61 9 -81 38 -129 23 -38 170 -192 454 -475 480 -478 479 -477 609
-471 62 4 82 9 130 39 38 23 192 170 475 454 478 480 477 479 471 609 -4 62
-9 82 -39 130 -23 38 -170 192 -454 475 -470 468 -475 472 -595 472 -49 0 -80
-7 -121 -26z"/>
<path d="M12680 8744 c-46 -21 -124 -94 -487 -457 -482 -482 -483 -483 -483
-608 0 -120 4 -125 472 -595 436 -438 488 -482 573 -492 l45 -5 0 1092 0 1091
-32 0 c-18 0 -58 -12 -88 -26z"/>
<path d="M1160 7464 c-46 -21 -124 -94 -487 -457 -492 -492 -488 -487 -481
-621 3 -61 9 -81 38 -129 23 -38 170 -192 454 -475 480 -478 479 -477 609
-471 62 4 82 9 130 39 38 23 192 170 475 454 478 480 477 479 471 609 -4 62
-9 82 -39 130 -23 38 -170 192 -454 475 -470 468 -475 472 -595 472 -49 0 -80
-7 -121 -26z"/>
<path d="M3720 7464 c-46 -21 -124 -94 -487 -457 -492 -492 -488 -487 -481
-621 3 -61 9 -81 38 -129 23 -38 170 -192 454 -475 480 -478 479 -477 609
-471 62 4 82 9 130 39 38 23 192 170 475 454 478 480 477 479 471 609 -4 62
-9 82 -39 130 -23 38 -170 192 -454 475 -470 468 -475 472 -595 472 -49 0 -80
-7 -121 -26z"/>
<path d="M6280 7464 c-46 -21 -124 -94 -487 -457 -492 -492 -488 -487 -481
-621 3 -61 9 -81 38 -129 23 -38 170 -192 454 -475 480 -478 479 -477 609
-471 62 4 82 9 130 39 38 23 192 170 475 454 478 480 477 479 471 609 -4 62
-9 82 -39 130 -23 38 -170 192 -454 475 -470 468 -475 472 -595 472 -49 0 -80
-7 -121 -26z"/>
<path d="M8840 7464 c-46 -21 -124 -94 -487 -457 -492 -492 -488 -487 -481
-621 3 -61 9 -81 38 -129 23 -38 170 -192 454 -475 480 -478 479 -477 609
-471 62 4 82 9 130 39 38 23 192 170 475 454 478 480 477 479 471 609 -4 62
-9 82 -39 130 -23 38 -170 192 -454 475 -470 468 -475 472 -595 472 -49 0 -80
-7 -121 -26z"/>
<path d="M11400 7464 c-46 -21 -124 -94 -487 -457 -492 -492 -488 -487 -481
-621 3 -61 9 -81 38 -129 23 -38 170 -192 454 -475 480 -478 479 -477 609
-471 62 4 82 9 130 39 38 23 192 170 475 454 478 480 477 479 471 609 -4 62
-9 82 -39 130 -23 38 -170 192 -454 475 -470 468 -475 472 -595 472 -49 0 -80
-7 -121 -26z"/>
<path d="M0 5120 l0 -1093 45 5 c85 10 137 54 573 492 468 470 472 475 472
596 0 121 -4 126 -472 596 -436 438 -488 482 -573 492 l-45 5 0 -1093z"/>
<path d="M2440 6184 c-46 -21 -124 -94 -487 -457 -492 -492 -488 -487 -481
-621 3 -61 9 -81 38 -129 23 -38 170 -192 454 -475 480 -478 479 -477 609
-471 62 4 82 9 130 39 38 23 192 170 475 454 478 480 477 479 471 609 -4 62
-9 82 -39 130 -23 38 -170 192 -454 475 -470 468 -475 472 -595 472 -49 0 -80
-7 -121 -26z"/>
<path d="M5000 6184 c-46 -21 -124 -94 -487 -457 -492 -492 -488 -487 -481
-621 3 -61 9 -81 38 -129 23 -38 170 -192 454 -475 480 -478 479 -477 609
-471 62 4 82 9 130 39 38 23 192 170 475 454 478 480 477 479 471 609 -4 62
-9 82 -39 130 -23 38 -170 192 -454 475 -470 468 -475 472 -595 472 -49 0 -80
-7 -121 -26z"/>
<path d="M7560 6184 c-46 -21 -124 -94 -487 -457 -492 -492 -488 -487 -481
-621 3 -61 9 -81 38 -129 23 -38 170 -192 454 -475 480 -478 479 -477 609
-471 62 4 82 9 130 39 38 23 192 170 475 454 478 480 477 479 471 609 -4 62
-9 82 -39 130 -23 38 -170 192 -454 475 -470 468 -475 472 -595 472 -49 0 -80
-7 -121 -26z"/>
<path d="M10120 6184 c-46 -21 -124 -94 -487 -457 -492 -492 -488 -487 -481
-621 3 -61 9 -81 38 -129 23 -38 170 -192 454 -475 480 -478 479 -477 609
-471 62 4 82 9 130 39 38 23 192 170 475 454 478 480 477 479 471 609 -4 62
-9 82 -39 130 -23 38 -170 192 -454 475 -470 468 -475 472 -595 472 -49 0 -80
-7 -121 -26z"/>
<path d="M12680 6184 c-46 -21 -124 -94 -487 -457 -482 -482 -483 -483 -483
-608 0 -120 4 -125 472 -595 436 -438 488 -482 573 -492 l45 -5 0 1092 0 1091
-32 0 c-18 0 -58 -12 -88 -26z"/>
<path d="M1160 4904 c-46 -21 -124 -94 -487 -457 -492 -492 -488 -487 -481
-621 3 -61 9 -81 38 -129 23 -38 170 -192 454 -475 480 -478 479 -477 609
-471 62 4 82 9 130 39 38 23 192 170 475 454 478 480 477 479 471 609 -4 62
-9 82 -39 130 -23 38 -170 192 -454 475 -470 468 -475 472 -595 472 -49 0 -80
-7 -121 -26z"/>
<path d="M3720 4904 c-46 -21 -124 -94 -487 -457 -492 -492 -488 -487 -481
-621 3 -61 9 -81 38 -129 23 -38 170 -192 454 -475 480 -478 479 -477 609
-471 62 4 82 9 130 39 38 23 192 170 475 454 478 480 477 479 471 609 -4 62
-9 82 -39 130 -23 38 -170 192 -454 475 -470 468 -475 472 -595 472 -49 0 -80
-7 -121 -26z"/>
<path d="M6280 4904 c-46 -21 -124 -94 -487 -457 -492 -492 -488 -487 -481
-621 3 -61 9 -81 38 -129 23 -38 170 -192 454 -475 480 -478 479 -477 609
-471 62 4 82 9 130 39 38 23 192 170 475 454 478 480 477 479 471 609 -4 62
-9 82 -39 130 -23 38 -170 192 -454 475 -470 468 -475 472 -595 472 -49 0 -80
-7 -121 -26z"/>
<path d="M8840 4904 c-46 -21 -124 -94 -487 -457 -492 -492 -488 -487 -481
-621 3 -61 9 -81 38 -129 23 -38 170 -192 454 -475 480 -478 479 -477 609
-471 62 4 82 9 130 39 38 23 192 170 475 454 478 480 477 479 471 609 -4 62
-9 82 -39 130 -23 38 -170 192 -454 475 -470 468 -475 472 -595 472 -49 0 -80
-7 -121 -26z"/>
<path d="M11400 4904 c-46 -21 -124 -94 -487 -457 -492 -492 -488 -487 -481
-621 3 -61 9 -81 38 -129 23 -38 170 -192 454 -475 480 -478 479 -477 609
-471 62 4 82 9 130 39 38 23 192 170 475 454 478 480 477 479 471 609 -4 62
-9 82 -39 130 -23 38 -170 192 -454 475 -470 468 -475 472 -595 472 -49 0 -80
-7 -121 -26z"/>
<path d="M0 2560 l0 -1093 45 5 c85 10 137 54 573 492 468 470 472 475 472
596 0 121 -4 126 -472 596 -436 438 -488 482 -573 492 l-45 5 0 -1093z"/>
<path d="M2440 3624 c-46 -21 -124 -94 -487 -457 -492 -492 -488 -487 -481
-621 3 -61 9 -81 38 -129 23 -38 170 -192 454 -475 480 -478 479 -477 609
-471 62 4 82 9 130 39 38 23 192 170 475 454 478 480 477 479 471 609 -4 62
-9 82 -39 130 -23 38 -170 192 -454 475 -470 468 -475 472 -595 472 -49 0 -80
-7 -121 -26z"/>
<path d="M5000 3624 c-46 -21 -124 -94 -487 -457 -492 -492 -488 -487 -481
-621 3 -61 9 -81 38 -129 23 -38 170 -192 454 -475 480 -478 479 -477 609
-471 62 4 82 9 130 39 38 23 192 170 475 454 478 480 477 479 471 609 -4 62
-9 82 -39 130 -23 38 -170 192 -454 475 -470 468 -475 472 -595 472 -49 0 -80
-7 -121 -26z"/>
<path d="M7560 3624 c-46 -21 -124 -94 -487 -457 -492 -492 -488 -487 -481
-621 3 -61 9 -81 38 -129 23 -38 170 -192 454 -475 480 -478 479 -477 609
-471 62 4 82 9 130 39 38 23 192 170 475 454 478 480 477 479 471 609 -4 62
-9 82 -39 130 -23 38 -170 192 -454 475 -470 468 -475 472 -595 472 -49 0 -80
-7 -121 -26z"/>
<path d="M10120 3624 c-46 -21 -124 -94 -487 -457 -492 -492 -488 -487 -481
-621 3 -61 9 -81 38 -129 23 -38 170 -192 454 -475 480 -478 479 -477 609
-471 62 4 82 9 130 39 38 23 192 170 475 454 478 480 477 479 471 609 -4 62
-9 82 -39 130 -23 38 -170 192 -454 475 -470 468 -475 472 -595 472 -49 0 -80
-7 -121 -26z"/>
<path d="M12680 3624 c-46 -21 -124 -94 -487 -457 -482 -482 -483 -483 -483
-608 0 -120 4 -125 472 -595 436 -438 488 -482 573 -492 l45 -5 0 1092 0 1091
-32 0 c-18 0 -58 -12 -88 -26z"/>
<path d="M1160 2344 c-46 -21 -124 -94 -487 -457 -492 -492 -488 -487 -481
-621 3 -61 9 -81 38 -129 23 -38 170 -192 454 -475 480 -478 479 -477 609
-471 62 4 82 9 130 39 38 23 192 170 475 454 478 480 477 479 471 609 -4 62
-9 82 -39 130 -23 38 -170 192 -454 475 -470 468 -475 472 -595 472 -49 0 -80
-7 -121 -26z"/>
<path d="M3720 2344 c-46 -21 -124 -94 -487 -457 -492 -492 -488 -487 -481
-621 3 -61 9 -81 38 -129 23 -38 170 -192 454 -475 480 -478 479 -477 609
-471 62 4 82 9 130 39 38 23 192 170 475 454 478 480 477 479 471 609 -4 62
-9 82 -39 130 -23 38 -170 192 -454 475 -470 468 -475 472 -595 472 -49 0 -80
-7 -121 -26z"/>
<path d="M6280 2344 c-46 -21 -124 -94 -487 -457 -492 -492 -488 -487 -481
-621 3 -61 9 -81 38 -129 23 -38 170 -192 454 -475 480 -478 479 -477 609
-471 62 4 82 9 130 39 38 23 192 170 475 454 478 480 477 479 471 609 -4 62
-9 82 -39 130 -23 38 -170 192 -454 475 -470 468 -475 472 -595 472 -49 0 -80
-7 -121 -26z"/>
<path d="M8840 2344 c-46 -21 -124 -94 -487 -457 -492 -492 -488 -487 -481
-621 3 -61 9 -81 38 -129 23 -38 170 -192 454 -475 480 -478 479 -477 609
-471 62 4 82 9 130 39 38 23 192 170 475 454 478 480 477 479 471 609 -4 62
-9 82 -39 130 -23 38 -170 192 -454 475 -470 468 -475 472 -595 472 -49 0 -80
-7 -121 -26z"/>
<path d="M11400 2344 c-46 -21 -124 -94 -487 -457 -492 -492 -488 -487 -481
-621 3 -61 9 -81 38 -129 23 -38 170 -192 454 -475 480 -478 479 -477 609
-471 62 4 82 9 130 39 38 23 192 170 475 454 478 480 477 479 471 609 -4 62
-9 82 -39 130 -23 38 -170 192 -454 475 -470 468 -475 472 -595 472 -49 0 -80
-7 -121 -26z"/>
<path d="M0 546 l0 -546 545 0 545 0 0 33 c0 83 -32 121 -472 563 -436 438
-488 482 -573 492 l-45 5 0 -547z"/>
<path d="M2440 1064 c-46 -21 -124 -94 -487 -457 -363 -363 -436 -441 -457
-487 -14 -30 -26 -70 -26 -87 l0 -33 1091 0 1092 0 -5 45 c-10 85 -54 137
-492 573 -470 468 -475 472 -595 472 -49 0 -80 -7 -121 -26z"/>
<path d="M5000 1064 c-46 -21 -124 -94 -487 -457 -363 -363 -436 -441 -457
-487 -14 -30 -26 -70 -26 -87 l0 -33 1091 0 1092 0 -5 45 c-10 85 -54 137
-492 573 -470 468 -475 472 -595 472 -49 0 -80 -7 -121 -26z"/>
<path d="M7560 1064 c-46 -21 -124 -94 -487 -457 -363 -363 -436 -441 -457
-487 -14 -30 -26 -70 -26 -87 l0 -33 1091 0 1092 0 -5 45 c-10 85 -54 137
-492 573 -470 468 -475 472 -595 472 -49 0 -80 -7 -121 -26z"/>
<path d="M10120 1064 c-46 -21 -124 -94 -487 -457 -363 -363 -436 -441 -457
-487 -14 -30 -26 -70 -26 -87 l0 -33 1091 0 1092 0 -5 45 c-10 85 -54 137
-492 573 -470 468 -475 472 -595 472 -49 0 -80 -7 -121 -26z"/>
<path d="M12680 1064 c-46 -21 -124 -94 -487 -457 -363 -363 -436 -441 -457
-487 -14 -30 -26 -70 -26 -87 l0 -33 545 0 545 0 0 545 0 545 -32 0 c-18 0
-58 -12 -88 -26z"/>
</g>
</svg>
